<?xml version="1.0" encoding="UTF-8"?>
<svg version="1.1" xmlns="http://www.w3.org/2000/svg" width="512" height="512">
<path d="M0 0 C168.96 0 337.92 0 512 0 C512 168.96 512 337.92 512 512 C343.04 512 174.08 512 0 512 C0 343.04 0 174.08 0 0 Z " fill="#202124" transform="translate(0,0)"/>
<path d="M0 0 C1.1312893 0.00005783 1.1312893 0.00005783 2.28543293 0.00011683 C30.48975627 0.00297799 58.69382555 0.07376882 86.89789486 0.1914711 C96.59526389 0.23149606 106.29254698 0.26382721 115.98999023 0.27856445 C124.5563019 0.291598 133.12243768 0.31855376 141.68865019 0.36218143 C146.19117101 0.38465433 150.69347637 0.40048713 155.19605827 0.39945221 C159.40980502 0.39870357 163.62306767 0.41673472 167.836689 0.44873619 C169.37164792 0.4571874 170.90666142 0.45901796 172.44163322 0.45337105 C184.08080376 0.41627322 194.07613468 2.31500212 204.32275391 8.00756836 C204.32275391 8.66756836 204.32275391 9.32756836 204.32275391 10.00756836 C204.90927734 10.25893555 205.49580078 10.51030273 206.10009766 10.76928711 C211.40167053 13.72288746 215.59416726 19.68032777 218.32275391 25.00756836 C218.64779655 25.59035018 218.9728392 26.173132 219.30773163 26.77357388 C222.72252578 33.47303635 222.89139686 39.47083951 222.84033203 46.89257812 C222.85084595 48.78720543 222.85084595 48.78720543 222.86157227 50.72010803 C222.87969761 54.16284691 222.87277996 57.60510239 222.86005592 61.04784894 C222.84985634 64.67318251 222.85934218 68.29847749 222.86560059 71.92381287 C222.87286342 78.01731706 222.86333218 84.11062694 222.84423828 90.20410156 C222.82254049 97.20859768 222.82947434 104.21262666 222.8515439 111.21711117 C222.86981935 117.26339266 222.8721955 123.30953513 222.86178923 129.35583538 C222.85561154 132.95233877 222.85455639 136.54862435 222.86793518 140.14511299 C222.99963565 181.23860415 222.99963565 181.23860415 209.15087891 196.38256836 C204.6602692 200.59445057 200.023988 203.70021666 194.32275391 206.00756836 C193.37400391 206.39944336 192.42525391 206.79131836 191.44775391 207.19506836 C184.12905122 209.09793106 176.49457127 209.15573322 168.9695282 209.14128113 C167.64127407 209.14467946 167.64127407 209.14467946 166.28618652 209.14814645 C163.34873635 209.15442576 160.41133304 209.15366103 157.47387695 209.15283203 C155.35559022 209.15582729 153.23730403 209.15923066 151.11901855 209.16300964 C145.3854467 209.17181589 139.65188979 209.17418632 133.91831183 209.17482543 C130.33110192 209.17553778 126.74389576 209.17767559 123.15668678 209.18032265 C110.62781154 209.18956447 98.0989469 209.19365894 85.57006836 209.19287109 C73.91397504 209.19227042 62.25792801 209.20282326 50.6018464 209.21861476 C40.57434615 209.23171304 30.54686099 209.23705404 20.51935226 209.23641568 C14.53925402 209.2361614 8.55919696 209.23897437 2.57910728 209.24959373 C-3.04750985 209.25931342 -8.67404675 209.25932744 -14.30066681 209.2520771 C-16.35767675 209.25103611 -18.4146918 209.25336511 -20.47169304 209.25943756 C-58.25471083 209.36369353 -58.25471083 209.36369353 -69.67724609 198.00756836 C-75.36397887 191.23366609 -81.19709088 184.18400047 -82.73974609 175.25756836 C-82.94277344 174.12061523 -82.94277344 174.12061523 -83.14990234 172.96069336 C-83.32392578 171.98616211 -83.49794922 171.01163086 -83.67724609 170.00756836 C-83.83561321 169.32520835 -83.99398033 168.64284834 -84.15714645 167.93981075 C-85.63371536 161.36328471 -85.96242859 155.12285523 -85.93603516 148.3984375 C-85.93953979 147.28323227 -85.94304443 146.16802704 -85.94665527 145.01902771 C-85.95540342 141.36019527 -85.94964745 137.70155877 -85.94287109 134.04272461 C-85.94421982 131.48261986 -85.94616209 128.92251537 -85.94866943 126.3624115 C-85.95161142 121.00720536 -85.94754646 115.65206833 -85.93798828 110.296875 C-85.92711191 104.13249996 -85.93062883 97.96825734 -85.94164109 91.80388552 C-85.95186156 85.84089451 -85.95071488 79.8779441 -85.94487762 73.9149456 C-85.9435491 71.39252135 -85.94516074 68.87009369 -85.94983673 66.34767342 C-85.95495052 62.81372423 -85.94712345 59.2800245 -85.93603516 55.74609375 C-85.94008362 54.71666656 -85.94413208 53.68723938 -85.94830322 52.62661743 C-85.89396802 43.21648774 -84.77398851 34.52879258 -80.67724609 26.00756836 C-80.24412109 24.85256836 -79.81099609 23.69756836 -79.36474609 22.50756836 C-74.81862127 13.07856873 -67.0270506 7.07419721 -57.37646484 3.37866211 C-49.5949039 0.68368815 -42.1657871 0.22755594 -33.98974609 0.19506836 C-32.72453125 0.16993164 -31.45931641 0.14479492 -30.15576172 0.11889648 C-20.10593501 -0.06710977 -10.05118372 -0.00083765 0 0 Z " fill="#FCFCFC" transform="translate(145.67724609375,150.992431640625)"/>
<path d="M0 0 C0 0.66 0 1.32 0 2 C0.72832031 2.2578125 1.45664062 2.515625 2.20703125 2.78125 C20.69907906 10.85050723 30.79573274 29.81002285 37.87109375 47.52734375 C43.79999922 65.76539554 41.61022293 88.65858132 33.203125 105.75390625 C26.16471565 119.1968921 16.13348546 130.04974582 4 139 C3.41863281 139.44472656 2.83726562 139.88945312 2.23828125 140.34765625 C-3.68680417 144.48855864 -10.57439181 146.48590317 -17.3671875 148.765625 C-20.78090862 149.83392011 -20.78090862 149.83392011 -23 151 C-46.8592367 154.83452018 -71.10213495 151.15022057 -91 137 C-101.02499912 128.8521345 -108.68663641 119.19836438 -115 108 C-115.63808594 106.948125 -115.63808594 106.948125 -116.2890625 105.875 C-117.374833 103.95210874 -118.20461044 102.06061388 -119 100 C-119.36996094 99.06542969 -119.73992187 98.13085938 -120.12109375 97.16796875 C-123.00157709 88.44678217 -123.39166574 80.03461482 -123.4375 70.875 C-123.44749023 69.70807617 -123.45748047 68.54115234 -123.46777344 67.33886719 C-123.3600341 56.39562882 -121.67601695 46.18503349 -116.4375 36.5 C-114.01925987 32.01246319 -114.01925987 32.01246319 -111.96875 27.35546875 C-106.86121392 14.9367419 -92.54593827 4.01162819 -81 -2 C-53.13744845 -13.42020631 -27.0645826 -12.25467613 0 0 Z " fill="#242427" transform="translate(255,186)"/>
<path d="M0 0 C1.1312893 0.00005783 1.1312893 0.00005783 2.28543293 0.00011683 C30.48975627 0.00297799 58.69382555 0.07376882 86.89789486 0.1914711 C96.59526389 0.23149606 106.29254698 0.26382721 115.98999023 0.27856445 C124.5563019 0.291598 133.12243768 0.31855376 141.68865019 0.36218143 C146.19117101 0.38465433 150.69347637 0.40048713 155.19605827 0.39945221 C159.40980502 0.39870357 163.62306767 0.41673472 167.836689 0.44873619 C169.37164792 0.4571874 170.90666142 0.45901796 172.44163322 0.45337105 C184.08080376 0.41627322 194.07613468 2.31500212 204.32275391 8.00756836 C204.32275391 8.66756836 204.32275391 9.32756836 204.32275391 10.00756836 C204.90927734 10.25893555 205.49580078 10.51030273 206.10009766 10.76928711 C211.40167053 13.72288746 215.59416726 19.68032777 218.32275391 25.00756836 C218.64853298 25.58740447 218.97431206 26.16724058 219.30996323 26.76464748 C222.78082663 33.54043307 222.86667324 39.63971897 222.77685547 47.14648438 C222.77743958 48.43526993 222.77802368 49.72405548 222.77862549 51.05189514 C222.77976576 54.5597426 222.7563695 58.06703476 222.72832966 61.574754 C222.70320011 65.25024117 222.70096496 68.92574328 222.69622803 72.6013031 C222.68383197 79.54973795 222.65105652 86.49791887 222.61083007 93.44624227 C222.56600687 101.36162112 222.54409891 109.27701256 222.52404833 117.19248688 C222.48232047 133.46432898 222.41203469 149.73591618 222.32275391 166.00756836 C221.99275391 166.00756836 221.66275391 166.00756836 221.32275391 166.00756836 C221.32275391 138.94756836 221.32275391 111.88756836 221.32275391 84.00756836 C206.21788876 85.96304747 206.21788876 85.96304747 191.32275391 89.00756836 C189.43344821 89.27063228 187.53653842 89.48612186 185.63525391 89.64038086 C184.10276001 89.76630615 184.10276001 89.76630615 182.53930664 89.89477539 C181.47784424 89.97324707 180.41638184 90.05171875 179.32275391 90.13256836 C178.22584229 90.21748535 177.12893066 90.30240234 175.9987793 90.38989258 C167.40557045 91.01643476 158.93504239 91.17479726 150.32275391 91.00756836 C150.32275391 100.57756836 150.32275391 110.14756836 150.32275391 120.00756836 C149.99275391 120.00756836 149.66275391 120.00756836 149.32275391 120.00756836 C149.30293457 119.24202637 149.28311523 118.47648437 149.26269531 117.68774414 C149.16656186 114.16904732 149.05724474 110.65087388 148.94775391 107.13256836 C148.91681641 105.92858398 148.88587891 104.72459961 148.85400391 103.48413086 C148.12580334 81.15264672 139.78390786 63.09823184 123.76806641 47.52319336 C119.2237737 43.29658677 114.87874529 39.78556405 109.32275391 37.00756836 C109.32275391 36.34756836 109.32275391 35.68756836 109.32275391 35.00756836 C107.31650375 34.33881831 105.31011002 33.6704975 103.30322266 33.00366211 C101.05379941 32.25188894 98.80681576 31.49281055 96.56103516 30.73022461 C95.23161011 30.28099984 93.90218302 29.83178111 92.57275391 29.38256836 C91.93523193 29.1644751 91.29770996 28.94638184 90.64086914 28.72167969 C70.5604992 21.95812531 45.21351885 25.90184387 26.32275391 35.00756836 C21.97365559 37.65661074 18.15572279 40.66380027 14.32275391 44.00756836 C12.83582031 45.27213867 12.83582031 45.27213867 11.31884766 46.56225586 C4.53338203 52.50744411 -0.3687545 57.75072864 -3.88769531 66.14111328 C-4.63464532 67.90686245 -5.4223768 69.65519833 -6.21240234 71.40209961 C-9.25659971 78.21456175 -11.68620594 84.59185411 -12.67724609 92.00756836 C-13.00724609 92.00756836 -13.33724609 92.00756836 -13.67724609 92.00756836 C-13.67724609 90.02756836 -13.67724609 88.04756836 -13.67724609 86.00756836 C-21.22716429 84.38043082 -28.68541345 82.93898367 -36.36474609 82.07006836 C-45.91976932 80.97725821 -55.27916358 79.01861398 -64.67724609 77.00756836 C-65.96985352 76.73178955 -65.96985352 76.73178955 -67.28857422 76.45043945 C-69.7944255 75.91272947 -72.29873876 75.36858109 -74.80224609 74.82006836 C-75.56649902 74.6532959 -76.33075195 74.48652344 -77.11816406 74.31469727 C-82.4359191 73.12823186 -82.4359191 73.12823186 -84.67724609 72.00756836 C-84.34724609 103.68756836 -84.01724609 135.36756836 -83.67724609 168.00756836 C-84.00724609 168.00756836 -84.33724609 168.00756836 -84.67724609 168.00756836 C-85.64656429 161.51422411 -85.82537185 155.18499625 -85.82250977 148.62548828 C-85.82586838 147.5105751 -85.82922699 146.39566193 -85.83268738 145.2469635 C-85.84215216 141.5773099 -85.84413822 137.90770214 -85.84521484 134.23803711 C-85.84843044 131.67507407 -85.85179474 129.11211122 -85.8553009 126.54914856 C-85.86128092 121.18201188 -85.86318494 115.81489325 -85.86254883 110.44775391 C-85.86194863 104.26866032 -85.87249461 98.0896542 -85.88829249 91.91058272 C-85.90301117 85.9379872 -85.90653507 79.9654387 -85.9059391 73.99282265 C-85.90711509 71.46481278 -85.91151538 68.93680218 -85.91927147 66.40880394 C-85.92912647 62.86507387 -85.92617156 59.32156608 -85.92016602 55.77783203 C-85.92578552 54.74526276 -85.93140503 53.71269348 -85.93719482 52.64883423 C-85.89685631 43.2279743 -84.77855121 34.53828299 -80.67724609 26.00756836 C-80.24412109 24.85256836 -79.81099609 23.69756836 -79.36474609 22.50756836 C-74.81862127 13.07856873 -67.0270506 7.07419721 -57.37646484 3.37866211 C-49.5949039 0.68368815 -42.1657871 0.22755594 -33.98974609 0.19506836 C-32.72453125 0.16993164 -31.45931641 0.14479492 -30.15576172 0.11889648 C-20.10593501 -0.06710977 -10.05118372 -0.00083765 0 0 Z " fill="#C9C8C8" transform="translate(145.67724609375,150.992431640625)"/>
<path d="M0 0 C2.40515925 2.0968055 3.3079738 2.90392405 3.63885498 6.02322388 C3.76421976 8.87208638 3.88306817 11.72046434 3.984375 14.5703125 C4.02600769 15.73321808 4.06764038 16.89612366 4.11053467 18.0942688 C4.7052197 37.1168939 4.66196825 56.15453988 4.67773438 75.18457031 C4.68330104 80.91957374 4.70756623 86.65434947 4.73570633 92.38928032 C4.7542827 96.83817237 4.7595348 101.28700764 4.76107025 105.73593521 C4.76408955 107.85304181 4.77209357 109.97014758 4.78525543 112.08721542 C4.80227112 115.02431226 4.80045107 117.9608234 4.79394531 120.89794922 C4.8031601 121.76327774 4.81237488 122.62860626 4.8218689 123.52015686 C4.78912077 128.22940303 4.46644175 131.28545991 1.4375 135.125 C-2.39714483 138.49483939 -5.99181989 138.44929588 -10.8671875 138.42578125 C-17.09287967 137.73103009 -22.02033918 135.53271998 -27.375 132.375 C-27.97521973 132.02228027 -28.57543945 131.66956055 -29.19384766 131.30615234 C-30.40703929 130.59180702 -31.61834056 129.87424056 -32.82763672 129.15332031 C-34.43938871 128.19797281 -36.06490282 127.2659482 -37.69140625 126.3359375 C-38.59761719 125.81257813 -39.50382812 125.28921875 -40.4375 124.75 C-41.23929687 124.28851563 -42.04109375 123.82703125 -42.8671875 123.3515625 C-43.42664063 122.94679688 -43.98609375 122.54203125 -44.5625 122.125 C-44.5625 121.465 -44.5625 120.805 -44.5625 120.125 C-45.7690625 119.939375 -45.7690625 119.939375 -47 119.75 C-47.845625 119.54375 -48.69125 119.3375 -49.5625 119.125 C-49.8925 118.465 -50.2225 117.805 -50.5625 117.125 C-52.74366771 115.86408155 -54.98292964 114.75880277 -57.23828125 113.63671875 C-60.13478733 111.75277278 -61.65653975 110.02152545 -63.5625 107.125 C-64.06370544 103.71008301 -64.06370544 103.71008301 -64.06420898 99.75195312 C-64.06961197 99.02773666 -64.07501495 98.3035202 -64.08058167 97.55735779 C-64.09304705 95.17323418 -64.07659386 92.79032343 -64.05859375 90.40625 C-64.05874879 88.74385515 -64.06023861 87.08145994 -64.06300354 85.41906738 C-64.06438654 81.93888322 -64.05184632 78.45911167 -64.02905273 74.97900391 C-64.00066818 70.52344212 -64.00340663 66.06856569 -64.01614285 61.61295319 C-64.02310584 58.18135754 -64.0153037 54.74991962 -64.00288582 51.31834412 C-63.99837733 49.67574163 -63.99802925 48.03312218 -64.00195122 46.39051819 C-64.0048696 44.0926761 -63.98832779 41.79577046 -63.96655273 39.49804688 C-63.96114975 38.19186401 -63.95574677 36.88568115 -63.95018005 35.53991699 C-63.22680284 29.16797933 -59.60832559 25.89556782 -54.92578125 21.94921875 C-48.23697579 16.78612429 -40.91396265 12.7037463 -33.47265625 8.7421875 C-29.00629207 6.26020794 -24.71707133 3.50914331 -20.41015625 0.76171875 C-14.49858937 -2.6360131 -5.978967 -3.89429085 0 0 Z " fill="#FDFDFD" transform="translate(449.5625,185.875)"/>
<path d="M0 0 C2.7889694 2.49539368 3.84889137 4.13292427 4.4921875 7.82421875 C3.79691428 12.31038644 1.12582875 14.00909323 -2.25 16.6875 C-8.31183922 21.8435938 -11.06316585 26.19098078 -13 34 C-13.34933594 34.73863281 -13.69867188 35.47726563 -14.05859375 36.23828125 C-16.66913276 43.89658448 -16.53848643 55.75597659 -13.3125 63.1875 C-12.58173007 64.48178617 -11.81105491 65.75445139 -11 67 C-10.60296875 67.70253906 -10.2059375 68.40507812 -9.796875 69.12890625 C-7.33882382 73.35270939 -4.64428483 76.70278991 -1 80 C-0.42894531 80.51691406 0.14210937 81.03382813 0.73046875 81.56640625 C9.07401856 88.94929147 18.1840754 90.44374128 29.22265625 90.26953125 C33.1718955 89.88627174 36.81718928 88.85638751 40.58984375 87.65625 C43 87 43 87 47 87 C47 86.34 47 85.68 47 85 C48.7578125 83.73828125 48.7578125 83.73828125 51.125 82.3125 C60.09795286 76.45691105 65.10292288 68.24018941 68.65234375 58.14453125 C70.55799846 46.3894252 69.61954116 34.08691987 63 24 C63 23.34 63 22.68 63 22 C62.34 22 61.68 22 61 22 C59.37890625 20.390625 59.37890625 20.390625 57.5625 18.25 C56.96566406 17.55390625 56.36882812 16.8578125 55.75390625 16.140625 C55.17511719 15.43421875 54.59632813 14.7278125 54 14 C53.43796875 13.33742187 52.8759375 12.67484375 52.296875 11.9921875 C50.10198069 8.62051251 50.68156486 5.94859574 51 2 C53 0 53 0 55.78515625 -0.3671875 C62.60410022 0.41164693 67.88923437 6.43157303 72.08984375 11.54296875 C73.81673185 13.98026158 75.40828789 16.47320897 77 19 C77.48339844 19.598125 77.96679688 20.19625 78.46484375 20.8125 C86.01452547 30.61614466 84.60167867 48.2042996 84 60 C83.48828125 62.44921875 83.48828125 62.44921875 83 64 C82.34 64 81.68 64 81 64 C80.9071875 65.175625 80.9071875 65.175625 80.8125 66.375 C78.40695804 77.10741796 71.65558544 84.51700425 64 92 C63.01 92.495 63.01 92.495 62 93 C61.505 94.485 61.505 94.485 61 96 C59.02 96.33 57.04 96.66 55 97 C55 97.66 55 98.32 55 99 C37.89754798 106.01639057 21.64449296 107.91082851 4.03125 101.484375 C0.93824604 99.96975966 -1.37260717 98.20910143 -4 96 C-5.38990646 95.1774023 -6.78569734 94.36465724 -8.1875 93.5625 C-17.9872585 87.13857804 -26.37859415 74.28710364 -29.4609375 63.109375 C-32.22732452 47.15253391 -30.58155551 28.57621762 -21.3984375 15.0234375 C-8.65656852 -1.03878822 -8.65656852 -1.03878822 0 0 Z " fill="#F1F0F0" transform="translate(187,209)"/>
<path d="M0 0 C2.4026605 2.0946271 3.30563611 2.90318862 3.64183044 6.01826477 C3.77156305 8.86223924 3.89288041 11.70568936 3.99609375 14.55078125 C4.03834579 15.71265457 4.08059784 16.87452789 4.12413025 18.0716095 C4.75514928 38.32850137 4.54639672 58.60761571 4.50616455 78.87158203 C4.49578533 84.66503531 4.4913362 90.45849316 4.48632812 96.25195312 C4.47572389 107.54298051 4.45874245 118.83398795 4.4375 130.125 C4.1075 130.125 3.7775 130.125 3.4375 130.125 C3.4375 97.785 3.4375 65.445 3.4375 32.125 C-10.67830316 35.3262002 -10.67830316 35.3262002 -24.78515625 38.56640625 C-25.61208984 38.75783203 -26.43902344 38.94925781 -27.29101562 39.14648438 C-28.85157417 39.50822054 -30.41147128 39.87282171 -31.97070312 40.24023438 C-41.78891841 42.50125975 -51.64118863 44.23522641 -61.5625 46.125 C-61.8925 66.255 -62.2225 86.385 -62.5625 107.125 C-62.8925 107.125 -63.2225 107.125 -63.5625 107.125 C-63.63204115 97.43260429 -63.68533212 87.7402946 -63.71793652 78.04770374 C-63.73358579 73.54693089 -63.75481054 69.04632885 -63.78881836 64.5456543 C-63.82143821 60.20143138 -63.83935857 55.85737267 -63.84713173 51.51303673 C-63.85267053 49.85644636 -63.86348652 48.19986488 -63.87969017 46.5433445 C-63.9014997 44.22116368 -63.90446551 41.8996595 -63.90307617 39.57739258 C-63.913862 38.89406357 -63.92464783 38.21073456 -63.9357605 37.50669861 C-63.90175292 32.24611308 -62.45298876 29.14924975 -58.90625 25.3515625 C-51.14540994 18.61015482 -42.51903648 13.55824604 -33.47265625 8.7421875 C-29.00629207 6.26020794 -24.71707133 3.50914331 -20.41015625 0.76171875 C-14.49858937 -2.6360131 -5.978967 -3.89429085 0 0 Z " fill="#C4C4C4" transform="translate(449.5625,185.875)"/>
<path d="M0 0 C1.11846313 0.01123901 1.11846313 0.01123901 2.25952148 0.02270508 C3.03626221 0.05259521 3.81300293 0.08248535 4.61328125 0.11328125 C5.41258057 0.13092529 6.21187988 0.14856934 7.03540039 0.16674805 C9.33400555 0.22762435 11.62884414 0.320235 13.92578125 0.42578125 C15.01375 0.46960938 16.10171875 0.5134375 17.22265625 0.55859375 C23.30243326 0.97230639 23.30243326 0.97230639 25.6171875 2.65625 C28.84016087 7.01447967 28.17450962 13.15526443 28.23828125 18.36328125 C28.26728516 19.14896484 28.29628906 19.93464844 28.32617188 20.74414062 C28.38497035 26.1490772 27.47085306 29.1134924 23.92578125 33.42578125 C19.06022522 38.29133728 11.3830062 37.70246051 4.86328125 37.92578125 C4.18201172 37.97992188 3.50074219 38.0340625 2.79882812 38.08984375 C-0.07803585 38.16722338 -2.42332875 37.83277434 -4.8815918 36.2956543 C-8.66088374 32.67446357 -9.49505627 29.34955942 -9.8359375 24.1953125 C-9.8425372 21.87617951 -9.81695135 19.55676582 -9.76171875 17.23828125 C-9.77654297 16.06330078 -9.79136719 14.88832031 -9.80664062 13.67773438 C-9.72325154 5.0886586 -9.72325154 5.0886586 -6.78515625 2.08789062 C-4.14379059 0.46843661 -3.01679516 -0.06622679 0 0 Z " fill="#C90405" transform="translate(307.07421875,177.57421875)"/>
<path d="M0 0 C3.21541724 2.58919541 4.82208873 4.07760116 5.61473083 8.18713379 C5.60966019 9.38672729 5.60458954 10.5863208 5.59936523 11.82226562 C5.60330795 12.48796066 5.60725067 13.1536557 5.61131287 13.83952332 C5.61799889 16.02921027 5.58891599 18.21678788 5.55859375 20.40625 C5.55434039 21.93411862 5.55201471 23.46199371 5.55152893 24.98986816 C5.54537143 28.18771783 5.52271214 31.38486488 5.48706055 34.58251953 C5.44178857 38.67480095 5.42703396 42.76644665 5.42332363 46.85895538 C5.41888763 50.01261627 5.40357075 53.16614468 5.3844471 56.31974792 C5.37558818 57.82837336 5.36884693 59.3370128 5.36428642 60.84565735 C5.35520882 62.95658923 5.33278859 65.06695666 5.30639648 67.17773438 C5.29575668 68.37732788 5.28511688 69.57692139 5.27415466 70.81286621 C5.00496263 73.9423079 4.3354175 76.17680347 3 79 C1.58696762 79.2506019 0.16920526 79.47461921 -1.25 79.6875 C-2.03890625 79.81511719 -2.8278125 79.94273437 -3.640625 80.07421875 C-6.80117504 79.97479747 -7.79530375 79.25803294 -10 77 C-10.5146637 73.89479065 -10.5146637 73.89479065 -10.53344727 70.02172852 C-10.54637062 68.96269318 -10.54637062 68.96269318 -10.55955505 67.88226318 C-10.58226554 65.54743834 -10.57546728 63.21380895 -10.56640625 60.87890625 C-10.57164001 59.25609479 -10.57791557 57.63328638 -10.58518982 56.01048279 C-10.59560362 52.60832411 -10.5910194 49.20658342 -10.57641602 45.80444336 C-10.55923467 41.44485468 -10.58270882 37.08658474 -10.61790562 32.72714329 C-10.63987022 29.37533334 -10.63844041 26.02383933 -10.6301403 22.6719799 C-10.62932009 21.06481417 -10.63619691 19.45762539 -10.65091133 17.85052681 C-10.66833973 15.60208347 -10.65383333 13.35601394 -10.63110352 11.10766602 C-10.63014175 9.82875992 -10.62917999 8.54985382 -10.62818909 7.23219299 C-10 4 -10 4 -7.61680603 1.59092712 C-4.62784574 -0.22625686 -3.41454519 -0.76827267 0 0 Z " fill="#FAF9F9" transform="translate(217,191)"/>
<path d="M0 0 C1.45937023 2.91874047 1.11126899 5.46946379 1.09765625 8.72875977 C1.09619598 9.41994904 1.09473572 10.11113831 1.0932312 10.82327271 C1.08942264 12.3254575 1.08330338 13.82763779 1.07516479 15.32980537 C1.06243462 17.70359825 1.05589442 20.07733546 1.05102539 22.45115662 C1.03958118 27.48829601 1.02033215 32.52538966 1 37.5625 C0.97645087 43.40102239 0.95604645 49.23951874 0.94406128 55.07807732 C0.93755092 57.42306352 0.92504366 59.76797054 0.91235352 62.1129303 C0.90872292 63.5421644 0.90537095 64.97139925 0.90234375 66.40063477 C0.89710693 67.65368912 0.89187012 68.90674347 0.88647461 70.19776917 C0.67902409 72.9049921 0.67902409 72.9049921 2 74 C3.51469448 74.23192865 5.03754562 74.41215238 6.5625 74.5625 C7.80193359 74.68818359 7.80193359 74.68818359 9.06640625 74.81640625 C9.70449219 74.87699219 10.34257812 74.93757813 11 75 C12.25406138 69.21354356 12.11186913 63.51131884 12.0625 57.625 C12.05798828 56.60277344 12.05347656 55.58054688 12.04882812 54.52734375 C12.037103 52.01816806 12.02069176 49.5091151 12 47 C11.67 47 11.34 47 11 47 C10.92590468 41.07351426 10.87142384 35.14729747 10.83520508 29.22045898 C10.82010821 27.20380966 10.79962885 25.18719321 10.77368164 23.1706543 C10.73733789 20.27384329 10.7202828 17.37746594 10.70703125 14.48046875 C10.69154739 13.57725388 10.67606354 12.674039 10.66011047 11.74345398 C10.65977058 10.4824865 10.65977058 10.4824865 10.65942383 9.19604492 C10.65276199 8.45658127 10.64610016 7.71711761 10.63923645 6.95524597 C11.09603147 4.47953406 12.10234795 3.58841637 14 2 C14.04637315 10.91011164 14.0818945 19.82018163 14.10362434 28.73038769 C14.11405441 32.86790929 14.12819942 37.00534823 14.15087891 41.14282227 C14.17263501 45.1369082 14.18457447 49.13091469 14.18975449 53.12505531 C14.19344527 54.64765994 14.20065248 56.1702603 14.21146011 57.69283104 C14.22601195 59.82811195 14.22797642 61.96306603 14.22705078 64.09838867 C14.231492 65.3130632 14.23593323 66.52773773 14.24050903 67.77922058 C14.00419726 70.94379229 13.35675219 73.15295404 12 76 C10.58696762 76.2506019 9.16920526 76.47461921 7.75 76.6875 C6.96109375 76.81511719 6.1721875 76.94273437 5.359375 77.07421875 C2.19732143 76.97475018 1.20195597 76.26346212 -1 74 C-1.48774719 70.87460327 -1.48774719 70.87460327 -1.4699707 66.97412109 C-1.4721611 66.26327866 -1.4743515 65.55243622 -1.47660828 64.8200531 C-1.47891974 62.47070781 -1.45266766 60.12261563 -1.42578125 57.7734375 C-1.42085872 56.14344684 -1.41755895 54.51345053 -1.41581726 52.88345337 C-1.40817576 49.46866794 -1.38760806 46.05430144 -1.35668945 42.63964844 C-1.31705172 38.25331078 -1.29907132 33.86724548 -1.28938007 29.48074913 C-1.27942754 25.30744137 -1.25952256 21.13420081 -1.23828125 16.9609375 C-1.2348855 16.15982922 -1.23148975 15.35872093 -1.2279911 14.53333664 C-1.21646627 12.27783873 -1.19795497 10.02251744 -1.17700195 7.76708984 C-1.16715775 6.48152191 -1.15731354 5.19595398 -1.14717102 3.87142944 C-1 1 -1 1 0 0 Z " fill="#D0CFD0" transform="translate(208,194)"/>
<path d="M0 0 C0.79664063 0.15339844 1.59328125 0.30679688 2.4140625 0.46484375 C6.73447415 1.10961107 11.01537398 1.35042888 15.375 1.5625 C16.62216797 1.62727539 16.62216797 1.62727539 17.89453125 1.69335938 C19.92953228 1.79861805 21.96474703 1.89973072 24 2 C24 1.34 24 0.68 24 0 C25.65 0 27.3 0 29 0 C27.11820676 2.54595556 26.06364568 2.9881515 22.89453125 3.578125 C18.82765101 4.0186697 14.83701109 4.25531234 10.75 4.3125 C10.04359375 4.34150391 9.3371875 4.37050781 8.609375 4.40039062 C6.546875 4.42578125 6.546875 4.42578125 3 4 C1.015625 1.98046875 1.015625 1.98046875 0 0 Z " fill="#BE2C2F" transform="translate(301,211)"/>
<path d="M0 0 C0.66 0.33 1.32 0.66 2 1 C0.59106853 2.63171123 -0.82745958 4.25513945 -2.25 5.875 C-3.03890625 6.77992188 -3.8278125 7.68484375 -4.640625 8.6171875 C-6.74691403 10.74439993 -8.25651526 11.90512306 -11 13 C-9.63422544 8.71506993 -7.79318655 6.56854295 -4.375 3.6875 C-3.55773437 2.99011719 -2.74046875 2.29273438 -1.8984375 1.57421875 C-0.95871094 0.79498047 -0.95871094 0.79498047 0 0 Z " fill="#A4A2A3" transform="translate(79,159)"/>
<path d="M0 0 C0.66 0.33 1.32 0.66 2 1 C-2.03523352 5.81123996 -6.04467233 10.13242719 -11 14 C-11 11 -11 11 -8.59375 8.30078125 C-7.5700032 7.29697757 -6.5383946 6.30114351 -5.5 5.3125 C-4.97535156 4.80138672 -4.45070312 4.29027344 -3.91015625 3.76367188 C-2.61339096 2.50227292 -1.30753883 1.25022788 0 0 Z " fill="#D0D0D0" transform="translate(179,210)"/>
<path d="M0 0 C0 3 0 3 -1.828125 5.19140625 C-2.62734375 5.97386719 -3.4265625 6.75632813 -4.25 7.5625 C-5.03890625 8.34753906 -5.8278125 9.13257813 -6.640625 9.94140625 C-8.7267613 11.76159471 -10.47089399 12.92687015 -13 14 C-10.38256198 8.10428565 -5.28256657 3.59214527 0 0 Z " fill="#4F4F51" transform="translate(190,220)"/>
<path d="M0 0 C0.33 0 0.66 0 1 0 C1 1.98 1 3.96 1 6 C2.32 6.66 3.64 7.32 5 8 C5 9.65 5 11.3 5 13 C0.17970402 9.14376321 0.17970402 9.14376321 -0.33203125 5.88671875 C-0.3145776 3.92143786 -0.16596091 1.95833873 0 0 Z " fill="#D8D5D5" transform="translate(238,211)"/>
<path d="M0 0 C-1.38188453 3.21043882 -2.92421903 5.04936365 -5.625 7.25 C-6.57246094 8.03117188 -6.57246094 8.03117188 -7.5390625 8.828125 C-8.02117187 9.21484375 -8.50328125 9.6015625 -9 10 C-9 7 -9 7 -7.5390625 5.17578125 C-6.90742188 4.56089844 -6.27578125 3.94601563 -5.625 3.3125 C-4.68527344 2.37857422 -4.68527344 2.37857422 -3.7265625 1.42578125 C-2 0 -2 0 0 0 Z " fill="#515153" transform="translate(158,197)"/>
<path d="M0 0 C0.33 0.66 0.66 1.32 1 2 C-0.4375 4 -0.4375 4 -3 6 C-6.02824418 6.35442445 -8.96485939 6.23347235 -12 6 C-12 5.67 -12 5.34 -12 5 C-11.07767578 4.83564453 -11.07767578 4.83564453 -10.13671875 4.66796875 C-9.32847656 4.50941406 -8.52023437 4.35085937 -7.6875 4.1875 C-6.88699219 4.03667969 -6.08648437 3.88585937 -5.26171875 3.73046875 C-2.76554413 2.92427764 -1.67577894 1.97947998 0 0 Z " fill="#D7AAAB" transform="translate(332,209)"/>
<path d="M0 0 C2.04219706 1.69179328 2.91793306 2.63727666 3.51171875 5.26171875 C3.56972656 6.06222656 3.62773437 6.86273438 3.6875 7.6875 C3.75324219 8.49574219 3.81898438 9.30398437 3.88671875 10.13671875 C3.92410156 10.75160156 3.96148437 11.36648437 4 12 C0.46209597 8.30827405 0.40884117 4.90609405 0 0 Z " fill="#8E8E8F" transform="translate(266,233)"/>
</svg>
